<svg height="766" width="766" xmlns="http://www.w3.org/2000/svg" viewBox="1 1 90 88.473" fill="#ffffff"><path d="M45.084 1C21.846 1 2.809 18.918 1 41.689l23.71 9.803a12.444 12.444 0 0 1 7.745-2.158l10.544-15.283v-.216c0-9.199 7.483-16.683 16.683-16.683 9.199 0 16.682 7.484 16.682 16.683s-7.483 16.684-16.682 16.684c-.127 0-.253 0-.379-.01l-15.038 10.73c.01.195.015.394.015.592 0 6.906-5.617 12.522-12.522 12.522-6.061 0-11.129-4.326-12.277-10.055L2.524 57.292c5.25 18.568 22.309 32.181 42.56 32.181 24.432 0 44.237-19.806 44.237-44.235C89.321 20.805 69.515 1 45.084 1"/><path d="M28.721 68.122l-5.434-2.245a9.35 9.35 0 0 0 4.841 4.606c4.782 1.992 10.295-.277 12.288-5.063a9.324 9.324 0 0 0 .014-7.189 9.335 9.335 0 0 0-5.074-5.097 9.357 9.357 0 0 0-6.926-.105l5.613 2.321a6.918 6.918 0 0 1 3.725 9.047 6.915 6.915 0 0 1-9.047 3.725M70.796 33.835c0-6.129-4.986-11.116-11.116-11.116-6.129 0-11.116 4.987-11.116 11.116 0 6.13 4.987 11.115 11.116 11.115 6.13 0 11.116-4.986 11.116-11.115m-19.448-.019c0-4.612 3.739-8.35 8.351-8.35a8.35 8.35 0 1 1 0 16.7 8.351 8.351 0 0 1-8.351-8.35"/></svg>
